<mxfile host="Electron" modified="2024-04-02T07:01:31.202Z" agent="Mozilla/5.0 (X11; Linux x86_64) AppleWebKit/537.36 (KHTML, like Gecko) draw.io/24.1.0 Chrome/120.0.6099.109 Electron/28.1.0 Safari/537.36" etag="DD8juj2fai7ZrfaqROHc" version="24.1.0" type="device">
  <diagram id="C5RBs43oDa-KdzZeNtuy" name="Page-1">
    <mxGraphModel dx="2191" dy="2012" grid="1" gridSize="10" guides="1" tooltips="1" connect="1" arrows="1" fold="1" page="1" pageScale="1" pageWidth="827" pageHeight="1169" math="0" shadow="0">
      <root>
        <mxCell id="WIyWlLk6GJQsqaUBKTNV-0" />
        <mxCell id="WIyWlLk6GJQsqaUBKTNV-1" parent="WIyWlLk6GJQsqaUBKTNV-0" />
        <mxCell id="YbQeeMFnPw70hb1UvXXW-3" value="&lt;p style=&quot;margin:0px;margin-top:4px;text-align:center;&quot;&gt;&lt;b&gt;Comments&lt;/b&gt;&lt;/p&gt;&lt;hr size=&quot;1&quot; style=&quot;border-style:solid;&quot;&gt;&lt;p style=&quot;margin:0px;margin-left:4px;&quot;&gt;+ field: Type&lt;/p&gt;&lt;hr size=&quot;1&quot; style=&quot;border-style:solid;&quot;&gt;&lt;p style=&quot;margin:0px;margin-left:4px;&quot;&gt;+ method(): Type&lt;/p&gt;" style="verticalAlign=top;align=left;overflow=fill;html=1;whiteSpace=wrap;" parent="WIyWlLk6GJQsqaUBKTNV-1" vertex="1">
          <mxGeometry x="-25" y="-430" width="160" height="90" as="geometry" />
        </mxCell>
        <mxCell id="YbQeeMFnPw70hb1UvXXW-4" value="&lt;p style=&quot;margin:0px;margin-top:4px;text-align:center;&quot;&gt;&lt;i&gt;&amp;lt;&amp;lt;Interface&amp;gt;&amp;gt;&lt;/i&gt;&lt;br&gt;&lt;b&gt;CommentsUtils&lt;/b&gt;&lt;/p&gt;&lt;hr size=&quot;1&quot; style=&quot;border-style:solid;&quot;&gt;&lt;p style=&quot;margin:0px;margin-left:4px;&quot;&gt;+ field1: Type&lt;br&gt;+ field2: Type&lt;/p&gt;&lt;hr size=&quot;1&quot; style=&quot;border-style:solid;&quot;&gt;&lt;p style=&quot;margin:0px;margin-left:4px;&quot;&gt;+ method1(Type): Type&lt;br&gt;+ method2(Type, Type): Type&lt;/p&gt;" style="verticalAlign=top;align=left;overflow=fill;html=1;whiteSpace=wrap;" parent="WIyWlLk6GJQsqaUBKTNV-1" vertex="1">
          <mxGeometry x="-40" y="-180" width="190" height="140" as="geometry" />
        </mxCell>
        <mxCell id="YbQeeMFnPw70hb1UvXXW-5" value="&lt;p style=&quot;margin:0px;margin-top:4px;text-align:center;&quot;&gt;&lt;i&gt;&amp;lt;&amp;lt;Interface&amp;gt;&amp;gt;&lt;/i&gt;&lt;br&gt;&lt;b&gt;StackUtils&lt;/b&gt;&lt;/p&gt;&lt;hr size=&quot;1&quot; style=&quot;border-style:solid;&quot;&gt;&lt;p style=&quot;margin:0px;margin-left:4px;&quot;&gt;+ field1: Type&lt;br&gt;+ field2: Type&lt;/p&gt;&lt;hr size=&quot;1&quot; style=&quot;border-style:solid;&quot;&gt;&lt;p style=&quot;margin:0px;margin-left:4px;&quot;&gt;+ method1(Type): Type&lt;br&gt;+ method2(Type, Type): Type&lt;/p&gt;" style="verticalAlign=top;align=left;overflow=fill;html=1;whiteSpace=wrap;" parent="WIyWlLk6GJQsqaUBKTNV-1" vertex="1">
          <mxGeometry x="255" y="-210" width="190" height="140" as="geometry" />
        </mxCell>
        <mxCell id="YbQeeMFnPw70hb1UvXXW-6" value="&lt;p style=&quot;margin:0px;margin-top:4px;text-align:center;&quot;&gt;&lt;b&gt;Push&lt;/b&gt;&lt;/p&gt;&lt;hr size=&quot;1&quot; style=&quot;border-style:solid;&quot;&gt;&lt;p style=&quot;margin:0px;margin-left:4px;&quot;&gt;+ field: Type&lt;/p&gt;&lt;hr size=&quot;1&quot; style=&quot;border-style:solid;&quot;&gt;&lt;p style=&quot;margin:0px;margin-left:4px;&quot;&gt;+ method(): Type&lt;/p&gt;" style="verticalAlign=top;align=left;overflow=fill;html=1;whiteSpace=wrap;" parent="WIyWlLk6GJQsqaUBKTNV-1" vertex="1">
          <mxGeometry x="210" y="-430" width="160" height="90" as="geometry" />
        </mxCell>
        <mxCell id="YbQeeMFnPw70hb1UvXXW-7" value="&lt;p style=&quot;margin:0px;margin-top:4px;text-align:center;&quot;&gt;&lt;b&gt;Pop&lt;/b&gt;&lt;/p&gt;&lt;hr size=&quot;1&quot; style=&quot;border-style:solid;&quot;&gt;&lt;p style=&quot;margin:0px;margin-left:4px;&quot;&gt;+ field: Type&lt;/p&gt;&lt;hr size=&quot;1&quot; style=&quot;border-style:solid;&quot;&gt;&lt;p style=&quot;margin:0px;margin-left:4px;&quot;&gt;+ method(): Type&lt;/p&gt;" style="verticalAlign=top;align=left;overflow=fill;html=1;whiteSpace=wrap;" parent="WIyWlLk6GJQsqaUBKTNV-1" vertex="1">
          <mxGeometry x="400" y="-440" width="160" height="90" as="geometry" />
        </mxCell>
        <mxCell id="YbQeeMFnPw70hb1UvXXW-9" value="" style="endArrow=block;dashed=1;endFill=0;endSize=12;html=1;rounded=0;exitX=0.5;exitY=1;exitDx=0;exitDy=0;" parent="WIyWlLk6GJQsqaUBKTNV-1" source="YbQeeMFnPw70hb1UvXXW-3" target="YbQeeMFnPw70hb1UvXXW-4" edge="1">
          <mxGeometry width="160" relative="1" as="geometry">
            <mxPoint x="-10" y="-310" as="sourcePoint" />
            <mxPoint x="115" y="-210" as="targetPoint" />
          </mxGeometry>
        </mxCell>
        <mxCell id="YbQeeMFnPw70hb1UvXXW-10" value="" style="endArrow=block;dashed=1;endFill=0;endSize=12;html=1;rounded=0;exitX=0.5;exitY=1;exitDx=0;exitDy=0;" parent="WIyWlLk6GJQsqaUBKTNV-1" source="YbQeeMFnPw70hb1UvXXW-7" target="YbQeeMFnPw70hb1UvXXW-5" edge="1">
          <mxGeometry width="160" relative="1" as="geometry">
            <mxPoint x="390" y="-280" as="sourcePoint" />
            <mxPoint x="550" y="-280" as="targetPoint" />
          </mxGeometry>
        </mxCell>
        <mxCell id="YbQeeMFnPw70hb1UvXXW-12" value="" style="endArrow=block;dashed=1;endFill=0;endSize=12;html=1;rounded=0;entryX=0.5;entryY=0;entryDx=0;entryDy=0;" parent="WIyWlLk6GJQsqaUBKTNV-1" source="YbQeeMFnPw70hb1UvXXW-6" target="YbQeeMFnPw70hb1UvXXW-5" edge="1">
          <mxGeometry width="160" relative="1" as="geometry">
            <mxPoint x="160" y="-300" as="sourcePoint" />
            <mxPoint x="320" y="-300" as="targetPoint" />
          </mxGeometry>
        </mxCell>
        <mxCell id="YbQeeMFnPw70hb1UvXXW-13" value="Extends" style="endArrow=block;endSize=16;endFill=0;html=1;rounded=0;entryX=0.363;entryY=0.017;entryDx=0;entryDy=0;entryPerimeter=0;" parent="WIyWlLk6GJQsqaUBKTNV-1" source="YbQeeMFnPw70hb1UvXXW-4" target="YbQeeMFnPw70hb1UvXXW-1" edge="1">
          <mxGeometry width="160" relative="1" as="geometry">
            <mxPoint x="10" y="10" as="sourcePoint" />
            <mxPoint x="170" y="10" as="targetPoint" />
          </mxGeometry>
        </mxCell>
        <mxCell id="YbQeeMFnPw70hb1UvXXW-14" value="Extends" style="endArrow=block;endSize=16;endFill=0;html=1;rounded=0;" parent="WIyWlLk6GJQsqaUBKTNV-1" source="YbQeeMFnPw70hb1UvXXW-5" target="YbQeeMFnPw70hb1UvXXW-1" edge="1">
          <mxGeometry width="160" relative="1" as="geometry">
            <mxPoint x="330" y="-50" as="sourcePoint" />
            <mxPoint x="490" y="-50" as="targetPoint" />
          </mxGeometry>
        </mxCell>
        <mxCell id="YbQeeMFnPw70hb1UvXXW-15" value="&lt;p style=&quot;margin:0px;margin-top:4px;text-align:center;&quot;&gt;&lt;i&gt;&amp;lt;&amp;lt;Interface&amp;gt;&amp;gt;&lt;/i&gt;&lt;br/&gt;&lt;b&gt;Interface&lt;/b&gt;&lt;/p&gt;&lt;hr size=&quot;1&quot; style=&quot;border-style:solid;&quot;/&gt;&lt;p style=&quot;margin:0px;margin-left:4px;&quot;&gt;+ field1: Type&lt;br/&gt;+ field2: Type&lt;/p&gt;&lt;hr size=&quot;1&quot; style=&quot;border-style:solid;&quot;/&gt;&lt;p style=&quot;margin:0px;margin-left:4px;&quot;&gt;+ method1(Type): Type&lt;br/&gt;+ method2(Type, Type): Type&lt;/p&gt;" style="verticalAlign=top;align=left;overflow=fill;html=1;whiteSpace=wrap;" parent="WIyWlLk6GJQsqaUBKTNV-1" vertex="1">
          <mxGeometry x="550" y="-210" width="190" height="140" as="geometry" />
        </mxCell>
        <mxCell id="YbQeeMFnPw70hb1UvXXW-20" value="Extends" style="endArrow=block;endSize=16;endFill=0;html=1;rounded=0;exitX=0.5;exitY=1;exitDx=0;exitDy=0;" parent="WIyWlLk6GJQsqaUBKTNV-1" source="YbQeeMFnPw70hb1UvXXW-15" target="YbQeeMFnPw70hb1UvXXW-1" edge="1">
          <mxGeometry width="160" relative="1" as="geometry">
            <mxPoint x="520" y="-10" as="sourcePoint" />
            <mxPoint x="680" y="-10" as="targetPoint" />
          </mxGeometry>
        </mxCell>
        <mxCell id="YbQeeMFnPw70hb1UvXXW-23" value="Model" style="swimlane;whiteSpace=wrap;html=1;" parent="WIyWlLk6GJQsqaUBKTNV-1" vertex="1">
          <mxGeometry x="-140" y="-480" width="900" height="930" as="geometry" />
        </mxCell>
        <mxCell id="YbQeeMFnPw70hb1UvXXW-26" value="&lt;p style=&quot;margin:0px;margin-top:4px;text-align:center;&quot;&gt;&lt;b&gt;Calculator&lt;/b&gt;&lt;/p&gt;&lt;hr size=&quot;1&quot; style=&quot;border-style:solid;&quot;&gt;&lt;p style=&quot;margin:0px;margin-left:4px;&quot;&gt;+ field: Type&lt;/p&gt;&lt;hr size=&quot;1&quot; style=&quot;border-style:solid;&quot;&gt;&lt;p style=&quot;margin:0px;margin-left:4px;&quot;&gt;+ method(): Type&lt;/p&gt;" style="verticalAlign=top;align=left;overflow=fill;html=1;whiteSpace=wrap;" parent="YbQeeMFnPw70hb1UvXXW-23" vertex="1">
          <mxGeometry x="230" y="790" width="160" height="90" as="geometry" />
        </mxCell>
        <mxCell id="YbQeeMFnPw70hb1UvXXW-0" value="&lt;p style=&quot;margin:0px;margin-top:4px;text-align:center;&quot;&gt;&lt;b&gt;OperationsFabric&lt;/b&gt;&lt;/p&gt;&lt;hr size=&quot;1&quot; style=&quot;border-style:solid;&quot;&gt;&lt;p style=&quot;margin:0px;margin-left:4px;&quot;&gt;+ field: Type&lt;/p&gt;&lt;hr size=&quot;1&quot; style=&quot;border-style:solid;&quot;&gt;&lt;p style=&quot;margin:0px;margin-left:4px;&quot;&gt;+ method(): Type&lt;/p&gt;" style="verticalAlign=top;align=left;overflow=fill;html=1;whiteSpace=wrap;" parent="YbQeeMFnPw70hb1UvXXW-23" vertex="1">
          <mxGeometry x="430" y="585" width="160" height="90" as="geometry" />
        </mxCell>
        <mxCell id="YbQeeMFnPw70hb1UvXXW-30" value="" style="endArrow=diamondThin;endFill=0;endSize=24;html=1;rounded=0;exitX=1;exitY=0.75;exitDx=0;exitDy=0;entryX=0.5;entryY=1;entryDx=0;entryDy=0;" parent="YbQeeMFnPw70hb1UvXXW-23" source="YbQeeMFnPw70hb1UvXXW-26" target="YbQeeMFnPw70hb1UvXXW-0" edge="1">
          <mxGeometry width="160" relative="1" as="geometry">
            <mxPoint x="120" y="500" as="sourcePoint" />
            <mxPoint x="590" y="760" as="targetPoint" />
          </mxGeometry>
        </mxCell>
        <mxCell id="YbQeeMFnPw70hb1UvXXW-1" value="&lt;p style=&quot;margin:0px;margin-top:4px;text-align:center;&quot;&gt;&lt;i&gt;&amp;lt;&amp;lt;Interface&amp;gt;&amp;gt;&lt;/i&gt;&lt;br&gt;&lt;b&gt;Operations&lt;/b&gt;&lt;/p&gt;&lt;hr size=&quot;1&quot; style=&quot;border-style:solid;&quot;&gt;&lt;p style=&quot;margin:0px;margin-left:4px;&quot;&gt;+ field1: Type&lt;br&gt;+ field2: Type&lt;/p&gt;&lt;hr size=&quot;1&quot; style=&quot;border-style:solid;&quot;&gt;&lt;p style=&quot;margin:0px;margin-left:4px;&quot;&gt;+ run(Array&amp;lt;Objects&amp;gt;)&lt;br&gt;&lt;/p&gt;" style="verticalAlign=top;align=left;overflow=fill;html=1;whiteSpace=wrap;" parent="YbQeeMFnPw70hb1UvXXW-23" vertex="1">
          <mxGeometry x="160" y="570" width="190" height="120" as="geometry" />
        </mxCell>
        <mxCell id="YbQeeMFnPw70hb1UvXXW-2" value="" style="endArrow=open;endFill=1;endSize=12;html=1;rounded=0;" parent="YbQeeMFnPw70hb1UvXXW-23" source="YbQeeMFnPw70hb1UvXXW-1" target="YbQeeMFnPw70hb1UvXXW-0" edge="1">
          <mxGeometry width="160" relative="1" as="geometry">
            <mxPoint x="390" y="750" as="sourcePoint" />
            <mxPoint x="550" y="750" as="targetPoint" />
          </mxGeometry>
        </mxCell>
        <mxCell id="YbQeeMFnPw70hb1UvXXW-16" value="&lt;p style=&quot;margin:0px;margin-top:4px;text-align:center;&quot;&gt;&lt;b&gt;OperationsScanner&lt;/b&gt;&lt;/p&gt;&lt;hr size=&quot;1&quot; style=&quot;border-style:solid;&quot;&gt;&lt;p style=&quot;margin:0px;margin-left:4px;&quot;&gt;&lt;/p&gt;&lt;p style=&quot;margin:0px;margin-left:4px;&quot;&gt;Подгружает классы&lt;/p&gt;" style="verticalAlign=top;align=left;overflow=fill;html=1;whiteSpace=wrap;" parent="YbQeeMFnPw70hb1UvXXW-23" vertex="1">
          <mxGeometry x="690" y="600" width="160" height="90" as="geometry" />
        </mxCell>
        <mxCell id="YbQeeMFnPw70hb1UvXXW-19" value="" style="endArrow=open;endFill=1;endSize=12;html=1;rounded=0;exitX=1.017;exitY=0.626;exitDx=0;exitDy=0;exitPerimeter=0;" parent="YbQeeMFnPw70hb1UvXXW-23" source="YbQeeMFnPw70hb1UvXXW-0" target="YbQeeMFnPw70hb1UvXXW-16" edge="1">
          <mxGeometry width="160" relative="1" as="geometry">
            <mxPoint x="510" y="834.5" as="sourcePoint" />
            <mxPoint x="630" y="834.5" as="targetPoint" />
          </mxGeometry>
        </mxCell>
        <mxCell id="YbQeeMFnPw70hb1UvXXW-32" value="" style="endArrow=diamondThin;endFill=0;endSize=24;html=1;rounded=0;" parent="YbQeeMFnPw70hb1UvXXW-23" edge="1">
          <mxGeometry width="160" relative="1" as="geometry">
            <mxPoint x="393" y="880" as="sourcePoint" />
            <mxPoint x="1190" y="500" as="targetPoint" />
            <Array as="points">
              <mxPoint x="1180" y="880" />
            </Array>
          </mxGeometry>
        </mxCell>
        <mxCell id="YbQeeMFnPw70hb1UvXXW-24" value="View" style="swimlane;whiteSpace=wrap;html=1;" parent="WIyWlLk6GJQsqaUBKTNV-1" vertex="1">
          <mxGeometry x="-660" y="-70" width="407" height="280" as="geometry" />
        </mxCell>
        <mxCell id="YbQeeMFnPw70hb1UvXXW-25" value="&lt;p style=&quot;margin:0px;margin-top:4px;text-align:center;&quot;&gt;&lt;b&gt;CommadParser&lt;/b&gt;&lt;/p&gt;&lt;hr size=&quot;1&quot; style=&quot;border-style:solid;&quot;&gt;&lt;p style=&quot;margin:0px;margin-left:4px;&quot;&gt;+ field: Type&lt;/p&gt;&lt;hr size=&quot;1&quot; style=&quot;border-style:solid;&quot;&gt;&lt;p style=&quot;margin:0px;margin-left:4px;&quot;&gt;+ method(): Type&lt;/p&gt;" style="verticalAlign=top;align=left;overflow=fill;html=1;whiteSpace=wrap;" parent="YbQeeMFnPw70hb1UvXXW-24" vertex="1">
          <mxGeometry x="57" y="110" width="160" height="90" as="geometry" />
        </mxCell>
        <mxCell id="YbQeeMFnPw70hb1UvXXW-29" value="" style="endArrow=diamondThin;endFill=0;endSize=24;html=1;rounded=0;exitX=0.5;exitY=1;exitDx=0;exitDy=0;" parent="WIyWlLk6GJQsqaUBKTNV-1" source="YbQeeMFnPw70hb1UvXXW-25" target="YbQeeMFnPw70hb1UvXXW-26" edge="1">
          <mxGeometry width="160" relative="1" as="geometry">
            <mxPoint x="-560" y="-70" as="sourcePoint" />
            <mxPoint x="-400" y="-70" as="targetPoint" />
            <Array as="points">
              <mxPoint x="-520" y="360" />
            </Array>
          </mxGeometry>
        </mxCell>
        <mxCell id="YbQeeMFnPw70hb1UvXXW-31" value="Controller" style="swimlane;whiteSpace=wrap;html=1;" parent="WIyWlLk6GJQsqaUBKTNV-1" vertex="1">
          <mxGeometry x="920" y="-260" width="350" height="370" as="geometry" />
        </mxCell>
        <mxCell id="YbQeeMFnPw70hb1UvXXW-33" value="&lt;p style=&quot;margin:0px;margin-top:4px;text-align:center;&quot;&gt;&lt;b&gt;Printer&lt;/b&gt;&lt;/p&gt;&lt;hr size=&quot;1&quot; style=&quot;border-style:solid;&quot;&gt;&lt;p style=&quot;margin:0px;margin-left:4px;&quot;&gt;+ field: Type&lt;/p&gt;&lt;hr size=&quot;1&quot; style=&quot;border-style:solid;&quot;&gt;&lt;p style=&quot;margin:0px;margin-left:4px;&quot;&gt;+ method(): Type&lt;/p&gt;" style="verticalAlign=top;align=left;overflow=fill;html=1;whiteSpace=wrap;" parent="YbQeeMFnPw70hb1UvXXW-31" vertex="1">
          <mxGeometry x="60" y="190" width="160" height="90" as="geometry" />
        </mxCell>
      </root>
    </mxGraphModel>
  </diagram>
</mxfile>
